<svg xmlns="http://www.w3.org/2000/svg" viewBox="0 0 143 54"><g fill="none"><path fill="#000" d="M65.02 35.746c1.134 0 2.136.28 3.006.838.869.558 1.543 1.342 2.022 2.352.478 1.01.718 2.19.718 3.536 0 1.33-.24 2.495-.718 3.496-.48 1.001-1.153 1.777-2.022 2.326-.87.55-1.872.824-3.007.824-1.082 0-2.008-.239-2.78-.717-.771-.479-1.352-1.17-1.743-2.074v6.912l-.005.112a.593.593 0 01-.14.34.536.536 0 01-.413.16c-.373 0-.559-.204-.559-.612V36.384l.006-.102a.566.566 0 01.14-.323.534.534 0 01.413-.16c.177 0 .315.054.412.16a.601.601 0 01.146.425v2.1l.123-.259a4.316 4.316 0 011.62-1.774c.772-.47 1.698-.705 2.78-.705zm44.668.027c.196 0 .346.106.453.319l5.134 11.564.054-.133 5.055-11.351.049-.1a.502.502 0 01.456-.272.53.53 0 01.372.146c.107.097.16.226.16.385a.868.868 0 01-.053.24l-7.636 16.907-.048.085a.492.492 0 01-.43.234.516.516 0 01-.36-.133.444.444 0 01-.146-.345l.053-.213 1.916-4.2-5.587-12.336-.024-.074a.505.505 0 01.157-.564.637.637 0 01.425-.16zm-21.736-.027c1.136 0 2.138.275 3.007.824.869.55 1.543 1.33 2.022 2.34.479 1.01.718 2.18.718 3.51 0 1.346-.24 2.525-.718 3.535-.48 1.01-1.153 1.79-2.022 2.34-.87.549-1.871.823-3.007.823-1.135 0-2.137-.274-3.006-.824-.869-.55-1.543-1.329-2.022-2.34-.479-1.01-.718-2.188-.718-3.535 0-1.33.24-2.499.718-3.51.48-1.01 1.153-1.79 2.022-2.339.87-.549 1.871-.824 3.006-.824zm-7.715.054l.12.004c.149.013.255.051.32.115.079.08.119.2.119.359 0 .301-.186.479-.559.532l-.798.08-.255.029c-1.168.16-2.059.629-2.672 1.406a4.511 4.511 0 00-.984 2.871v7.258l-.006.111a.574.574 0 01-.14.34c-.098.107-.235.16-.413.16-.177 0-.314-.053-.412-.16-.098-.106-.146-.256-.146-.451V36.41l.005-.116c.034-.33.218-.495.553-.495.16 0 .293.053.4.159.106.106.16.257.16.452v1.914l.107-.204c.782-1.394 2.13-2.16 4.042-2.295l.373-.026h.186zm26.658 0c.142 0 .27.053.386.159.115.106.173.24.173.399 0 .16-.062.31-.187.452l-4.735 5.53 4.868 5.662.068.086a.64.64 0 01.119.366c0 .16-.054.292-.16.399a.51.51 0 01-.372.16c-.16 0-.31-.08-.453-.24l-4.789-5.61-4.762 5.61-.096.086a.612.612 0 01-.383.153.507.507 0 01-.372-.16.537.537 0 01-.16-.398c0-.16.062-.31.187-.452l4.868-5.663-4.709-5.53-.067-.085a.64.64 0 01-.12-.366c0-.16.054-.293.16-.399a.514.514 0 01.373-.16c.16 0 .31.08.452.24l4.63 5.476 4.629-5.476.086-.086a.548.548 0 01.366-.153zm-18.943 1.036c-1.418 0-2.531.492-3.338 1.476-.807.983-1.21 2.352-1.21 4.107 0 1.808.394 3.195 1.183 4.16.79.966 1.902 1.45 3.339 1.45 1.472 0 2.603-.484 3.392-1.45.79-.965 1.184-2.352 1.184-4.16 0-1.755-.404-3.124-1.21-4.107-.808-.984-1.92-1.476-3.34-1.476zm-22.933 0c-1.454 0-2.572.483-3.352 1.45-.78.965-1.17 2.343-1.17 4.133s.39 3.173 1.17 4.147c.78.975 1.889 1.462 3.326 1.462 1.436 0 2.554-.483 3.352-1.448.798-.966 1.197-2.335 1.197-4.108 0-1.772-.399-3.154-1.197-4.147-.798-.992-1.907-1.489-3.326-1.489zM129.975 0c.441 0 .821.147 1.14.441.294.262.457.61.49 1.046l.006.168v14.532l8.36-7.535c.27-.23.559-.344.866-.344.393 0 .736.15 1.031.453.307.301.46.64.46 1.014 0 .29-.108.557-.324.803l-.118.12-6.684 5.888 7.31 7.571c.27.278.406.592.406.942 0 .387-.16.73-.48 1.033a1.473 1.473 0 01-1.067.453c-.376 0-.705-.13-.987-.389l-.118-.119-8.655-9.057v7.891c0 .515-.172.926-.515 1.232-.33.295-.722.442-1.176.442-.453 0-.839-.141-1.157-.423-.283-.262-.44-.62-.472-1.075l-.006-.176V1.655c0-.515.165-.92.496-1.214A1.78 1.78 0 01129.975 0zm-6.65 7.975c.44 0 .82.153 1.138.458.294.271.458.633.49 1.085l.007.174v15.157c0 .534-.172.96-.515 1.278-.33.305-.723.458-1.176.458a1.65 1.65 0 01-1.157-.439c-.283-.271-.44-.643-.472-1.115l-.006-.182V9.692c0-.534.165-.954.496-1.259a1.742 1.742 0 011.194-.458zM118.856 0l-.001.002.079.005a1.163 1.163 0 01-.096 2.319h-1.726c-.515 0-.917.049-1.204.146-.288.084-.546.316-.773.63-.216.304-.294.88-.378 1.46-.064.507-.1 1.176-.106 2.008l-.002.32v1.085h2.994a.998.998 0 010 1.994h-2.993v14.942c0 .458-.135.833-.406 1.126l-.108.106c-.33.295-.723.442-1.176.442-.453 0-.84-.141-1.158-.423-.283-.262-.44-.62-.471-1.075l-.006-.176V9.97h-2.662a.996.996 0 010-1.994h2.662V5.999c0-2.17.455-3.708 1.366-4.617.854-.864 2.013-1.323 3.478-1.377l.297-.005h2.39zM99.213 7.975c1.733 0 3.344.447 4.544 1.257.952.642 1.726 1.632 2.038 2.608.18.56.207.767.209 1.58 0 .507-.013.848-.04 1.007-.282 1.599-.951 2.707-2.113 3.496-.934.635-2.108 1.006-3.643 1.153-.772.073-2.186.067-3.101-.016-.777-.07-1.731-.192-2.138-.275-.34-.069-1.507-.267-1.517-.257-.004.004-.06.359-.123.788-.102.685-.116.856-.118 1.403v.283c.003.318.018.422.071.627.212.825.68 1.377 1.53 1.804.835.42 1.71.601 3.034.63.586.012.886.003 1.252-.036.889-.096 1.293-.201 2.474-.642.294-.11.594-.21.667-.222.155-.026.446.028.615.116.306.157.563.578.561.918-.001.398-.133.639-.52.952-.927.749-2.11 1.208-3.522 1.367-.504.057-1.653.065-2.209.016-1.564-.138-2.65-.41-3.641-.911-.775-.392-1.365-.877-1.807-1.485-.108-.15-.2-.275-.204-.28a1.497 1.497 0 00-.16.192 6.53 6.53 0 01-1.493 1.375c-.8.528-1.95.932-3.112 1.092-.347.048-1.498.087-1.793.061-2.037-.178-3.594-.802-4.727-1.895-1.152-1.112-1.647-2.562-1.452-4.256.225-1.95 1.137-3.327 2.736-4.13 1.233-.62 2.463-.855 4.465-.855 1.423 0 2.615.118 4.434.439.45.08.839.144.865.145.038 0 .068-.146.15-.727.15-1.051.176-1.414.136-1.836-.048-.49-.11-.723-.292-1.103-.472-.98-1.592-1.58-3.39-1.816-.515-.067-1.702-.077-2.217-.018-.863.1-1.345.226-2.42.635-.628.239-.63.24-.882.225-.43-.026-.725-.224-.914-.616-.077-.161-.09-.228-.09-.445 0-.327.083-.5.374-.777.654-.62 1.753-1.15 2.863-1.376.71-.146 1.06-.176 1.996-.175.97.003 1.589.057 2.45.22 1.431.27 2.519.747 3.339 1.464.243.212.61.63.767.875.048.075.097.136.11.136.012 0 .092-.09.176-.2 1.242-1.606 3.333-2.516 5.782-2.515zm-20.822 0c.415 0 .739.15.972.447.246.298.369.645.369 1.042 0 .372-.11.695-.33.968-.22.26-.538.39-.952.39-1.748 0-2.942.435-3.913 1.303-.938.85-1.437 1.981-1.457 3.391v9.333c0 .534-.171.96-.514 1.278-.33.305-.723.458-1.176.458a1.65 1.65 0 01-1.157-.439c-.307-.293-.466-.704-.477-1.233l-.001-15.221c0-.534.165-.954.496-1.259a1.742 1.742 0 011.194-.458c.441 0 .82.153 1.14.458.317.293.482.691.495 1.195v2.404c.324-1.154.972-2.115 1.943-2.884.984-.782 1.996-1.173 3.368-1.173zM61.25 2.658c.408 0 .76.132 1.058.396.309.276.463.644.463 1.106v3.814l3.66.001c.51 0 .932.385.99.881l.006.116a.996.996 0 01-.88.99l-.117.007h-3.659v9.726l.001.32c.008.831.043 1.5.107 2.007.084.581.162 1.157.378 1.46.227.315.485.546.772.631.247.083.577.13.991.142l.214.003h1.726a1.165 1.165 0 01.219 2.3l-.123.02-.08.005.002.002h-2.391l-.297-.006c-1.465-.054-2.624-.513-3.478-1.376-.863-.861-1.317-2.288-1.363-4.28l-.003-.337-.001-10.618-2.328.001a.997.997 0 01-.99-.88l-.007-.117c0-.511.385-.932.88-.99l.117-.007h2.397l.264-3.815c0-.484.143-.858.43-1.122a1.52 1.52 0 011.042-.38zm24.992 15.217c-1.238.07-1.743.181-2.486.544-.381.187-.644.389-.852.655a3.179 3.179 0 00-.604 1.273c-.091.372-.1 1.347-.016 1.661.143.53.313.829.694 1.225.522.543 1.21.905 2.064 1.086.436.093.423.092 1.154.08.53-.007.729-.023.946-.072.92-.209 1.742-.68 2.338-1.34.543-.604.989-1.507 1.234-2.503.138-.561.368-2.124.317-2.156a1.21 1.21 0 00-.27-.045 31.262 31.262 0 01-.813-.098c-1.893-.25-3.055-.348-3.706-.31zm11.549-7.497c-.675.127-1.245.358-1.747.707-.93.647-1.57 1.62-1.927 2.928-.14.514-.178.711-.303 1.596l-.115.817.155.018c.207.023.53.062.878.105l.531.067c.264.033.516.066.72.093.384.05.856.105 1.048.12.486.04 1.31.042 1.873.008l.224-.016c.767-.07 1.238-.192 1.818-.472.482-.233.762-.471 1.027-.873.39-.592.543-1.152.539-1.984-.003-.593-.052-.84-.251-1.266-.445-.952-1.49-1.633-2.86-1.866-.342-.058-1.26-.047-1.61.018zM123.314 0c.591 0 1.069.163 1.432.49.364.315.546.736.546 1.263 0 .515-.182.936-.546 1.263-.363.315-.847.473-1.45.473-.602 0-1.085-.158-1.449-.473-.364-.327-.546-.748-.546-1.263 0-.516.182-.937.546-1.264.375-.326.864-.489 1.467-.489z"/><path fill="#24A1C1" d="M23.071 5.815c2.093 0 3.953 1.476 3.953 3.294s-1.771 3.294-3.953 3.294c-.25 0-.575-.04-.977-.122a1.313 1.313 0 00-.914.146l-14.172 8.06a.66.66 0 00.003 1.148l15.363 8.624c.399.224.885.225 1.285.003l15.446-8.586a.659.659 0 00.006-1.149l-4.82-2.735c-.4-.227-.888-.23-1.29-.007l-5.087 2.822a.45.45 0 00-.229.344l-.002.048c0 1.819-1.771 3.295-3.953 3.295s-3.953-1.476-3.953-3.295c0-1.818 1.771-3.294 3.953-3.294.081 0 .174.005.28.013l.166.017.185.023c.281.038.567-.016.816-.153l7.524-4.173a1.975 1.975 0 011.855-.033l.08.042 10.506 5.965c1.317.747 1.332 2.628.055 3.405l-.07.041-7.03 3.907a.66.66 0 00.015 1.159l6.96 3.661c1.383.727 1.416 2.694.06 3.467L23.99 47.094a1.978 1.978 0 01-1.959 0L1.01 35.095c-1.358-.775-1.32-2.746.066-3.469l7.037-3.671a.659.659 0 00.018-1.159l-7.122-3.998c-1.317-.74-1.346-2.613-.08-3.4l.07-.042 17.492-9.947a1.32 1.32 0 00.592-.709l.022-.07c.615-1.828 2.011-2.815 3.966-2.815zm9.76 24.267l-8.637 4.966-.08.044a1.968 1.968 0 01-1.868-.035l-8.61-4.854a1.311 1.311 0 00-1.253-.02L7.42 32.778a.66.66 0 00-.021 1.157l15.163 8.676c.404.23.899.231 1.303 0l15.294-8.738a.658.658 0 00-.019-1.155l-5.043-2.66c-.398-.21-.875-.2-1.266.024z"/></g></svg>